<svg width="38" height="38" viewBox="0 0 38 38" fill="none" xmlns="http://www.w3.org/2000/svg">
<path d="M26.6816 0.666672H11.3183C4.64496 0.666672 0.666626 4.645 0.666626 11.3183V26.6633C0.666626 33.355 4.64496 37.3333 11.3183 37.3333H26.6633C33.3366 37.3333 37.315 33.355 37.315 26.6817V11.3183C37.3333 4.645 33.355 0.666672 26.6816 0.666672ZM27.9466 18.1383C27.9466 18.8533 27.3783 19.4217 26.6633 19.4217C25.9483 19.4217 25.38 18.8533 25.38 18.1383V17.8083L20.3933 22.795C20.1183 23.07 19.7516 23.1983 19.3666 23.1617C19.1773 23.1463 18.9941 23.087 18.8318 22.9883C18.6695 22.8896 18.5324 22.7544 18.4316 22.5933L16.5616 19.8067L12.1983 24.17C11.9416 24.4267 11.63 24.5367 11.3 24.5367C10.97 24.5367 10.64 24.4083 10.4016 24.17C10.1636 23.9279 10.0302 23.602 10.0302 23.2625C10.0302 22.923 10.1636 22.5971 10.4016 22.355L15.865 16.8917C16.14 16.6167 16.5066 16.4883 16.8916 16.525C17.2766 16.5617 17.625 16.7633 17.8266 17.0933L19.6966 19.88L23.565 16.0117H23.235C22.52 16.0117 21.9516 15.4433 21.9516 14.7283C21.9516 14.0133 22.52 13.445 23.235 13.445H26.645C26.81 13.445 26.975 13.4817 27.14 13.5367C27.4516 13.665 27.7083 13.9217 27.8366 14.2333C27.91 14.3983 27.9283 14.5633 27.9283 14.7283V18.1383H27.9466Z" fill="#F19595" fill-opacity="0.9"/>
</svg>
