<svg width="38" height="38" viewBox="0 0 38 38" fill="none" xmlns="http://www.w3.org/2000/svg">
<path d="M26.6816 0.666672H11.3183C4.64496 0.666672 0.666626 4.64501 0.666626 11.3183V26.6633C0.666626 33.355 4.64496 37.3333 11.3183 37.3333H26.6633C33.3366 37.3333 37.315 33.355 37.315 26.6817V11.3183C37.3333 4.64501 33.355 0.666672 26.6816 0.666672ZM27.9466 23.2717C27.9466 23.4367 27.91 23.6017 27.855 23.7667C27.7266 24.0783 27.47 24.335 27.1583 24.4633C26.9933 24.5367 26.8283 24.555 26.6633 24.555H23.2533C22.5383 24.555 21.97 23.9867 21.97 23.2717C21.97 22.5567 22.5383 21.9883 23.2533 21.9883H23.5833L19.715 18.12L17.845 20.9067C17.625 21.2183 17.295 21.4383 16.91 21.475C16.7223 21.4946 16.5326 21.4718 16.355 21.4083C16.1773 21.3449 16.0161 21.2424 15.8833 21.1083L10.42 15.645C10.1819 15.4029 10.0485 15.077 10.0485 14.7375C10.0485 14.398 10.1819 14.0721 10.42 13.83C10.915 13.3167 11.7216 13.335 12.235 13.83L16.5983 18.1933L18.4683 15.4067C18.6883 15.095 19.0183 14.875 19.4033 14.8383C19.8066 14.8017 20.155 14.93 20.43 15.205L25.4166 20.1917V19.8617C25.4166 19.1467 25.985 18.5783 26.7 18.5783C27.415 18.5783 27.9833 19.1467 27.9833 19.8617V23.2717H27.9466Z" fill="#40BB45"/>
</svg>
